<svg xmlns="http://www.w3.org/2000/svg" viewBox="0 0 760 180" fill="none">
  <defs>
    <linearGradient id="bg-grad" x1="0%" y1="0%" x2="100%" y2="100%">
      <stop offset="0%" style="stop-color:#1A73E8;stop-opacity:1" />
      <stop offset="100%" style="stop-color:#0D47A1;stop-opacity:1" />
    </linearGradient>
    <linearGradient id="accent-grad" x1="0%" y1="0%" x2="100%" y2="100%">
      <stop offset="0%" style="stop-color:#4FC3F7;stop-opacity:1" />
      <stop offset="100%" style="stop-color:#29B6F6;stop-opacity:1" />
    </linearGradient>
  </defs>

  <g transform="translate(35, 0)">
  <!-- Icon mark (compact) -->
  <g transform="translate(20, 20) scale(0.32)">
    <rect x="16" y="16" width="480" height="480" rx="96" fill="url(#bg-grad)" />
    <g stroke="#ffffff" stroke-width="4" stroke-opacity="0.35" stroke-linecap="round">
      <line x1="256" y1="256" x2="160" y2="160" />
      <line x1="256" y1="256" x2="352" y2="160" />
      <line x1="256" y1="256" x2="160" y2="352" />
      <line x1="256" y1="256" x2="352" y2="352" />
      <line x1="160" y1="160" x2="352" y2="160" />
      <line x1="160" y1="352" x2="352" y2="352" />
    </g>
    <circle cx="160" cy="160" r="28" fill="url(#accent-grad)" />
    <circle cx="352" cy="160" r="28" fill="url(#accent-grad)" />
    <circle cx="160" cy="352" r="28" fill="url(#accent-grad)" />
    <circle cx="352" cy="352" r="28" fill="url(#accent-grad)" />
    <circle cx="256" cy="256" r="44" fill="#ffffff" />
    <circle cx="256" cy="256" r="30" fill="url(#bg-grad)" />
    <circle cx="256" cy="256" r="14" fill="#ffffff" />
  </g>

  <!-- Wordmark -->
  <text x="210" y="122" font-family="'Inter', 'Segoe UI', 'Roboto', sans-serif" font-size="68" font-weight="600" fill="#1A73E8" letter-spacing="-1">
    Entity<tspan fill="#0D47A1" font-weight="700">Map</tspan>
  </text>

  <!-- Tagline -->
  <text x="212" y="154" font-family="'Inter', 'Segoe UI', 'Roboto', sans-serif" font-size="17" font-weight="400" fill="#78909C" letter-spacing="2">
    DEPENDENCY INSIGHT FOR HOME ASSISTANT
  </text>
  </g>
</svg>
